<svg width="100%" viewBox="0 0 680 700" xmlns="http://www.w3.org/2000/svg" style="font-family: -apple-system, BlinkMacSystemFont, 'Segoe UI', sans-serif;">

<line x1="340" y1="20" x2="340" y2="680" stroke="#888780" stroke-width="0.5" stroke-dasharray="4 4" opacity="0.2"/>

<text x="170" y="40" text-anchor="middle" font-size="14" font-weight="500" fill="#2C2C2A">Dashboarding</text>
<text x="170" y="58" text-anchor="middle" font-size="12" fill="#5F5E5A">Logica negli output</text>

<text x="510" y="40" text-anchor="middle" font-size="14" font-weight="500" fill="#2C2C2A">Financial OS</text>
<text x="510" y="58" text-anchor="middle" font-size="12" fill="#5F5E5A">Logica nel modello</text>

<rect x="40" y="600" width="600" height="52" rx="8" fill="#F1EFE8" stroke="#5F5E5A" stroke-width="0.5"/>
<text x="340" y="620" text-anchor="middle" dominant-baseline="central" font-size="14" font-weight="500" fill="#2C2C2A">Movimenti contabili</text>
<text x="340" y="638" text-anchor="middle" dominant-baseline="central" font-size="12" fill="#5F5E5A">Fatti registrati</text>

<rect x="48" y="90" width="110" height="56" rx="8" fill="#FAECE7" stroke="#993C1D" stroke-width="0.5"/>
<text x="103" y="110" text-anchor="middle" dominant-baseline="central" font-size="14" font-weight="500" fill="#712B13">Report A</text>
<text x="103" y="128" text-anchor="middle" dominant-baseline="central" font-size="12" fill="#993C1D">Logica implicita</text>

<rect x="115" y="170" width="110" height="56" rx="8" fill="#FAEEDA" stroke="#854F0B" stroke-width="0.5"/>
<text x="170" y="190" text-anchor="middle" dominant-baseline="central" font-size="14" font-weight="500" fill="#633806">Report B</text>
<text x="170" y="208" text-anchor="middle" dominant-baseline="central" font-size="12" fill="#854F0B">Logica implicita</text>

<rect x="48" y="250" width="110" height="56" rx="8" fill="#FBEAF0" stroke="#993556" stroke-width="0.5"/>
<text x="103" y="270" text-anchor="middle" dominant-baseline="central" font-size="14" font-weight="500" fill="#72243E">Report C</text>
<text x="103" y="288" text-anchor="middle" dominant-baseline="central" font-size="12" fill="#993556">Logica implicita</text>

<line x1="103" y1="146" x2="130" y2="598" stroke="#993C1D" stroke-width="0.5" opacity="0.3"/>
<line x1="170" y1="226" x2="200" y2="598" stroke="#854F0B" stroke-width="0.5" opacity="0.3"/>
<line x1="103" y1="306" x2="160" y2="598" stroke="#993556" stroke-width="0.5" opacity="0.3"/>

<rect x="180" y="340" width="130" height="56" rx="8" fill="#FCEBEB" stroke="#A32D2D" stroke-width="0.5"/>
<text x="245" y="360" text-anchor="middle" dominant-baseline="central" font-size="14" font-weight="500" fill="#791F1F">Nuova domanda</text>
<text x="245" y="378" text-anchor="middle" dominant-baseline="central" font-size="12" fill="#A32D2D">→ nuova logica</text>

<line x1="245" y1="396" x2="245" y2="598" stroke="#A32D2D" stroke-width="0.5" opacity="0.3" stroke-dasharray="3 3"/>

<text x="170" y="440" text-anchor="middle" font-size="12" fill="#A32D2D">Ogni output = oggetto costruito</text>
<text x="170" y="458" text-anchor="middle" font-size="12" fill="#A32D2D">Complessità cresce con domande</text>

<rect x="80" y="490" width="180" height="40" rx="8" fill="#FCEBEB" stroke="#A32D2D" stroke-width="0.5"/>
<text x="170" y="510" text-anchor="middle" dominant-baseline="central" font-size="14" font-weight="500" fill="#791F1F">Costo: O(n)</text>

<rect x="385" y="90" width="100" height="40" rx="6" fill="#F1EFE8" stroke="#5F5E5A" stroke-width="0.5"/>
<text x="435" y="110" text-anchor="middle" dominant-baseline="central" font-size="12" fill="#444441">Vista 1</text>

<rect x="500" y="90" width="100" height="40" rx="6" fill="#F1EFE8" stroke="#5F5E5A" stroke-width="0.5"/>
<text x="550" y="110" text-anchor="middle" dominant-baseline="central" font-size="12" fill="#444441">Vista 2</text>

<rect x="385" y="150" width="100" height="40" rx="6" fill="#F1EFE8" stroke="#5F5E5A" stroke-width="0.5"/>
<text x="435" y="170" text-anchor="middle" dominant-baseline="central" font-size="12" fill="#444441">Vista N</text>

<rect x="500" y="150" width="100" height="40" rx="6" fill="#F1EFE8" stroke="#5F5E5A" stroke-width="0.5"/>
<text x="550" y="170" text-anchor="middle" dominant-baseline="central" font-size="12" fill="#444441">Agente</text>

<text x="510" y="216" text-anchor="middle" font-size="12" fill="#0F6E56">Proiezioni (costo ≈ 0)</text>

<line x1="435" y1="130" x2="475" y2="248" stroke="#0F6E56" stroke-width="0.5" opacity="0.4"/>
<line x1="550" y1="130" x2="545" y2="248" stroke="#0F6E56" stroke-width="0.5" opacity="0.4"/>
<line x1="435" y1="190" x2="475" y2="248" stroke="#0F6E56" stroke-width="0.5" opacity="0.4"/>
<line x1="550" y1="190" x2="545" y2="248" stroke="#0F6E56" stroke-width="0.5" opacity="0.4"/>

<rect x="395" y="250" width="230" height="100" rx="14" fill="#E1F5EE" stroke="#0F6E56" stroke-width="1.5"/>
<text x="510" y="280" text-anchor="middle" dominant-baseline="central" font-size="14" font-weight="500" fill="#085041">Semantic layer</text>
<text x="510" y="300" text-anchor="middle" dominant-baseline="central" font-size="12" fill="#0F6E56">Decisioni vincolanti</text>
<text x="510" y="318" text-anchor="middle" dominant-baseline="central" font-size="12" fill="#0F6E56">sul significato</text>

<text x="510" y="380" text-anchor="middle" font-size="12" fill="#0F6E56">Fatti validati e mappati</text>

<line x1="510" y1="350" x2="510" y2="598" stroke="#0F6E56" stroke-width="1.5" opacity="0.6"/>

<rect x="420" y="490" width="180" height="40" rx="8" fill="#EAF3DE" stroke="#3B6D11" stroke-width="0.5"/>
<text x="510" y="510" text-anchor="middle" dominant-baseline="central" font-size="14" font-weight="500" fill="#27500A">Costo: O(1)</text>

<text x="170" y="672" text-anchor="middle" font-size="12" fill="#A32D2D">Storytelling</text>
<text x="510" y="672" text-anchor="middle" font-size="12" fill="#0F6E56">Sistema</text>

</svg>