<svg width="100%" viewBox="0 0 680 580" xmlns="http://www.w3.org/2000/svg" style="font-family: -apple-system, BlinkMacSystemFont, 'Segoe UI', sans-serif;">

<rect x="210" y="30" width="260" height="52" rx="10" fill="#F1EFE8" stroke="#5F5E5A" stroke-width="1"/>
<text x="340" y="48" text-anchor="middle" dominant-baseline="central" font-size="14" font-weight="500" fill="#2C2C2A">Fatto economico</text>
<text x="340" y="68" text-anchor="middle" dominant-baseline="central" font-size="12" fill="#5F5E5A">es. fattura consulenze IT</text>

<line x1="260" y1="82" x2="125" y2="135" stroke="#993C1D" stroke-width="0.75"/>
<line x1="340" y1="82" x2="340" y2="135" stroke="#185FA5" stroke-width="0.75"/>
<line x1="420" y1="82" x2="555" y2="135" stroke="#534AB7" stroke-width="0.75"/>

<rect x="40" y="140" width="160" height="76" rx="10" fill="#FAECE7" stroke="#993C1D" stroke-width="0.5"/>
<text x="120" y="166" text-anchor="middle" dominant-baseline="central" font-size="14" font-weight="500" fill="#712B13">Competenza</text>
<text x="120" y="186" text-anchor="middle" dominant-baseline="central" font-size="12" fill="#993C1D">Risultato economico</text>

<rect x="260" y="140" width="160" height="76" rx="10" fill="#E6F1FB" stroke="#185FA5" stroke-width="0.5"/>
<text x="340" y="166" text-anchor="middle" dominant-baseline="central" font-size="14" font-weight="500" fill="#0C447C">Cassa</text>
<text x="340" y="186" text-anchor="middle" dominant-baseline="central" font-size="12" fill="#185FA5">Movimento denaro</text>

<rect x="480" y="140" width="160" height="76" rx="10" fill="#EEEDFE" stroke="#534AB7" stroke-width="0.5"/>
<text x="560" y="166" text-anchor="middle" dominant-baseline="central" font-size="14" font-weight="500" fill="#3C3489">Impegno</text>
<text x="560" y="186" text-anchor="middle" dominant-baseline="central" font-size="12" fill="#534AB7">Obbligazione creata</text>

<line x1="60" y1="248" x2="620" y2="248" stroke="#888780" stroke-width="0.5" opacity="0.3"/>
<circle cx="120" cy="248" r="4" fill="#993C1D" opacity="0.6"/>
<circle cx="340" cy="248" r="4" fill="#185FA5" opacity="0.6"/>
<circle cx="560" cy="248" r="4" fill="#534AB7" opacity="0.6"/>
<text x="120" y="268" text-anchor="middle" font-size="12" fill="#5F5E5A">t₁</text>
<text x="340" y="268" text-anchor="middle" font-size="12" fill="#5F5E5A">t₂</text>
<text x="560" y="268" text-anchor="middle" font-size="12" fill="#5F5E5A">t₃</text>

<line x1="40" y1="295" x2="640" y2="295" stroke="#888780" stroke-width="0.5" stroke-dasharray="4 4" opacity="0.15"/>

<line x1="120" y1="216" x2="120" y2="308" stroke="#993C1D" stroke-width="0.5" stroke-dasharray="3 3" opacity="0.4"/>
<line x1="340" y1="216" x2="340" y2="308" stroke="#185FA5" stroke-width="0.5" stroke-dasharray="3 3" opacity="0.4"/>
<line x1="560" y1="216" x2="560" y2="308" stroke="#534AB7" stroke-width="0.5" stroke-dasharray="3 3" opacity="0.4"/>

<rect x="40" y="310" width="160" height="56" rx="8" fill="#FAECE7" stroke="#993C1D" stroke-width="0.5"/>
<text x="120" y="330" text-anchor="middle" dominant-baseline="central" font-size="14" font-weight="500" fill="#712B13">Controllo gestione</text>
<text x="120" y="348" text-anchor="middle" dominant-baseline="central" font-size="12" fill="#993C1D">Ottimizza margini</text>

<rect x="260" y="310" width="160" height="56" rx="8" fill="#E6F1FB" stroke="#185FA5" stroke-width="0.5"/>
<text x="340" y="330" text-anchor="middle" dominant-baseline="central" font-size="14" font-weight="500" fill="#0C447C">Tesoreria</text>
<text x="340" y="348" text-anchor="middle" dominant-baseline="central" font-size="12" fill="#185FA5">Ottimizza cassa</text>

<rect x="480" y="310" width="160" height="56" rx="8" fill="#EEEDFE" stroke="#534AB7" stroke-width="0.5"/>
<text x="560" y="330" text-anchor="middle" dominant-baseline="central" font-size="14" font-weight="500" fill="#3C3489">Contabilità</text>
<text x="560" y="348" text-anchor="middle" dominant-baseline="central" font-size="12" fill="#534AB7">Ottimizza conformità</text>

<line x1="40" y1="395" x2="640" y2="395" stroke="#888780" stroke-width="0.5" stroke-dasharray="4 4" opacity="0.15"/>

<rect x="140" y="415" width="400" height="44" rx="8" fill="#FCEBEB" stroke="#A32D2D" stroke-width="0.5"/>
<text x="340" y="437" text-anchor="middle" dominant-baseline="central" font-size="14" font-weight="500" fill="#791F1F">"Quanto spendiamo in consulenze IT?"</text>

<line x1="240" y1="459" x2="120" y2="488" stroke="#A32D2D" stroke-width="0.5"/>
<line x1="340" y1="459" x2="340" y2="488" stroke="#A32D2D" stroke-width="0.5"/>
<line x1="440" y1="459" x2="560" y2="488" stroke="#A32D2D" stroke-width="0.5"/>

<rect x="55" y="490" width="130" height="36" rx="6" fill="#FAECE7" stroke="#993C1D" stroke-width="0.5"/>
<text x="120" y="508" text-anchor="middle" dominant-baseline="central" font-size="12" fill="#712B13">"Servizi tecnici"</text>

<rect x="275" y="490" width="130" height="36" rx="6" fill="#E6F1FB" stroke="#185FA5" stroke-width="0.5"/>
<text x="340" y="508" text-anchor="middle" dominant-baseline="central" font-size="12" fill="#0C447C">"Consulenze IT"</text>

<rect x="495" y="490" width="130" height="36" rx="6" fill="#EEEDFE" stroke="#534AB7" stroke-width="0.5"/>
<text x="560" y="508" text-anchor="middle" dominant-baseline="central" font-size="12" fill="#3C3489">"Costi per servizi"</text>

<text x="340" y="556" text-anchor="middle" font-size="12" fill="#A32D2D">Tre numeri diversi — tutti "corretti" nel loro frame</text>

</svg>